<svg width="419" height="305" viewBox="0 0 419 305" fill="none" xmlns="http://www.w3.org/2000/svg">
<rect width="418.006" height="305" transform="translate(0.431915)" fill="white"/>
<rect x="48.4891" y="21.8762" width="354.044" height="246.203" fill="#EFF6FF"/>
<path fill-rule="evenodd" clip-rule="evenodd" d="M290.787 146.599C308.84 165.177 318.982 190.375 318.982 216.649V269.638H126.452L126.452 216.649C126.452 190.375 136.594 165.177 154.647 146.598C172.7 128.02 197.186 117.583 222.717 117.583C248.248 117.583 272.733 128.02 290.787 146.599Z" fill="#3B82F6"/>
<path d="M213.965 103.438C196.566 103.438 182.46 88.3976 182.46 69.8443C182.46 51.291 196.566 36.2506 213.965 36.2506C231.365 36.2506 245.47 51.291 245.47 69.8443C245.47 88.3976 231.365 103.438 213.965 103.438Z" fill="#BFDBFE"/>
<path d="M186.343 89.2932C184.115 84.6811 182.811 79.5704 182.522 74.3236C182.233 69.0768 182.967 63.8224 184.672 58.9326C186.376 54.0428 189.009 49.6375 192.385 46.0289C195.761 42.4203 199.796 39.6968 204.205 38.0514C208.614 36.4061 213.289 35.8791 217.898 36.508C222.507 37.1368 226.937 38.9059 230.875 41.69C234.813 44.4742 238.161 48.2051 240.684 52.6184C243.206 57.0317 244.84 62.0195 245.47 67.2278L224.713 51.9828L220.85 43.2056C220.85 43.2056 228.721 76.5486 186.343 89.2932Z" fill="#1F2937"/>
<path d="M410.744 223.799C410.744 264.305 378.598 297.142 338.943 297.142C299.288 297.142 267.142 264.305 267.142 223.799C267.142 183.293 299.288 150.456 338.943 150.456C378.598 150.456 410.744 183.293 410.744 223.799Z" fill="#BFDBFE"/>
<path fill-rule="evenodd" clip-rule="evenodd" d="M418.438 223.799C418.438 268.645 382.847 305 338.943 305C295.04 305 259.449 268.645 259.449 223.799C259.449 178.952 295.04 142.597 338.943 142.597C382.847 142.597 418.438 178.952 418.438 223.799ZM338.943 297.142C378.598 297.142 410.745 264.305 410.745 223.799C410.745 183.292 378.598 150.456 338.943 150.456C299.289 150.456 267.142 183.292 267.142 223.799C267.142 264.305 299.289 297.142 338.943 297.142Z" fill="#1E40AF"/>
<mask id="path-7-outside-1_20_904" maskUnits="userSpaceOnUse" x="302.212" y="186.393" width="70" height="70" fill="black">
<rect fill="white" x="302.212" y="186.393" width="70" height="70"/>
<path fill-rule="evenodd" clip-rule="evenodd" d="M336.686 230.205C336.686 231.288 335.82 232.154 334.738 232.154C333.655 232.154 332.789 231.288 332.897 230.205V212.778C332.897 204.119 339.933 196.975 348.701 196.975H364.613L357.577 191.779C356.711 191.238 356.494 190.047 357.144 189.181C357.793 188.315 358.984 188.099 359.633 188.856L368.942 195.676C370.025 196.433 370.674 197.624 370.674 198.815C370.782 200.005 370.133 201.196 369.051 201.954L359.742 208.99C359.417 209.206 359.092 209.314 358.659 209.314C358.118 209.314 357.469 209.098 357.144 208.557C356.603 207.799 356.711 206.608 357.577 205.959L364.504 200.763H348.701C342.098 200.763 336.686 206.175 336.686 212.778V230.205ZM366.993 230.314C366.993 229.231 367.859 228.365 368.942 228.365C370.024 228.365 370.89 229.123 370.674 230.205V246.983C370.674 251.313 367.102 254.885 362.772 254.885H312.114C307.784 254.885 304.212 251.313 304.212 246.983V230.205C304.212 229.123 305.078 228.257 306.161 228.257C307.243 228.257 308.109 229.123 308.109 230.205V247.091C308.109 249.364 309.949 251.205 312.222 251.205H362.88C365.153 251.205 366.993 249.364 366.993 247.091V230.314Z"/>
</mask>
<path fill-rule="evenodd" clip-rule="evenodd" d="M336.686 230.205C336.686 231.288 335.82 232.154 334.738 232.154C333.655 232.154 332.789 231.288 332.897 230.205V212.778C332.897 204.119 339.933 196.975 348.701 196.975H364.613L357.577 191.779C356.711 191.238 356.494 190.047 357.144 189.181C357.793 188.315 358.984 188.099 359.633 188.856L368.942 195.676C370.025 196.433 370.674 197.624 370.674 198.815C370.782 200.005 370.133 201.196 369.051 201.954L359.742 208.99C359.417 209.206 359.092 209.314 358.659 209.314C358.118 209.314 357.469 209.098 357.144 208.557C356.603 207.799 356.711 206.608 357.577 205.959L364.504 200.763H348.701C342.098 200.763 336.686 206.175 336.686 212.778V230.205ZM366.993 230.314C366.993 229.231 367.859 228.365 368.942 228.365C370.024 228.365 370.89 229.123 370.674 230.205V246.983C370.674 251.313 367.102 254.885 362.772 254.885H312.114C307.784 254.885 304.212 251.313 304.212 246.983V230.205C304.212 229.123 305.078 228.257 306.161 228.257C307.243 228.257 308.109 229.123 308.109 230.205V247.091C308.109 249.364 309.949 251.205 312.222 251.205H362.88C365.153 251.205 366.993 249.364 366.993 247.091V230.314Z" fill="#1E40AF"/>
<path d="M332.897 230.205L334.328 230.348L334.335 230.277V230.205H332.897ZM364.613 196.975V198.412H368.98L365.467 195.818L364.613 196.975ZM357.577 191.779L358.431 190.622L358.386 190.589L358.339 190.56L357.577 191.779ZM357.144 189.181L358.294 190.044L357.144 189.181ZM359.633 188.856L358.542 189.792L358.65 189.918L358.784 190.016L359.633 188.856ZM368.942 195.676L368.093 196.835L368.105 196.845L368.118 196.854L368.942 195.676ZM370.674 198.815H369.237V198.88L369.242 198.945L370.674 198.815ZM369.051 201.954L368.226 200.776L368.205 200.791L368.184 200.807L369.051 201.954ZM359.742 208.99L360.539 210.186L360.575 210.162L360.609 210.137L359.742 208.99ZM357.144 208.557L358.377 207.817L358.347 207.768L358.314 207.721L357.144 208.557ZM357.577 205.959L356.714 204.809V204.809L357.577 205.959ZM364.504 200.763L365.367 201.913L368.817 199.326H364.504V200.763ZM370.674 230.205L369.264 229.924L369.236 230.063V230.205H370.674ZM334.738 233.591C336.614 233.591 338.124 232.082 338.124 230.205H335.248C335.248 230.494 335.026 230.716 334.738 230.716V233.591ZM331.467 230.062C331.266 232.076 332.892 233.591 334.738 233.591V230.716C334.583 230.716 334.472 230.656 334.407 230.589C334.349 230.528 334.317 230.453 334.328 230.348L331.467 230.062ZM331.46 212.778V230.205H334.335V212.778H331.46ZM348.701 195.537C339.133 195.537 331.46 203.331 331.46 212.778H334.335C334.335 204.906 340.734 198.412 348.701 198.412V195.537ZM364.613 195.537H348.701V198.412H364.613V195.537ZM356.723 192.935L363.759 198.131L365.467 195.818L358.431 190.622L356.723 192.935ZM355.994 188.319C354.864 189.825 355.2 191.989 356.815 192.998L358.339 190.56C358.222 190.487 358.125 190.269 358.294 190.044L355.994 188.319ZM360.725 187.921C360.039 187.12 359.063 186.858 358.179 186.988C357.32 187.114 356.531 187.602 355.994 188.319L358.294 190.044C358.406 189.894 358.537 189.841 358.598 189.832C358.624 189.828 358.621 189.834 358.597 189.826C358.569 189.817 358.548 189.799 358.542 189.792L360.725 187.921ZM369.792 194.516L360.483 187.697L358.784 190.016L368.093 196.835L369.792 194.516ZM372.112 198.815C372.112 197.107 371.192 195.496 369.767 194.498L368.118 196.854C368.857 197.371 369.237 198.141 369.237 198.815H372.112ZM369.875 203.132C371.288 202.143 372.27 200.492 372.106 198.685L369.242 198.945C369.295 199.519 368.978 200.249 368.226 200.776L369.875 203.132ZM360.609 210.137L369.917 203.101L368.184 200.807L358.875 207.843L360.609 210.137ZM358.659 210.752C359.385 210.752 359.986 210.555 360.539 210.186L358.944 207.793C358.877 207.838 358.84 207.853 358.818 207.859C358.797 207.866 358.752 207.877 358.659 207.877V210.752ZM355.911 209.296C356.592 210.431 357.833 210.752 358.659 210.752V207.877C358.568 207.877 358.475 207.857 358.41 207.827C358.352 207.801 358.359 207.788 358.377 207.817L355.911 209.296ZM356.714 204.809C355.199 205.945 354.997 208.025 355.974 209.392L358.314 207.721C358.274 207.665 358.236 207.556 358.256 207.42C358.273 207.297 358.333 207.189 358.439 207.109L356.714 204.809ZM363.642 199.613L356.714 204.809L358.439 207.109L365.367 201.913L363.642 199.613ZM348.701 202.201H364.504V199.326H348.701V202.201ZM338.124 212.778C338.124 206.969 342.892 202.201 348.701 202.201V199.326C341.304 199.326 335.248 205.381 335.248 212.778H338.124ZM338.124 230.205V212.778H335.248V230.205H338.124ZM368.942 226.928C367.065 226.928 365.556 228.437 365.556 230.314H368.431C368.431 230.025 368.653 229.803 368.942 229.803V226.928ZM372.083 230.487C372.286 229.474 371.976 228.527 371.311 227.863C370.678 227.23 369.805 226.928 368.942 226.928V229.803C369.161 229.803 369.262 229.88 369.278 229.896C369.283 229.901 369.275 229.894 369.271 229.878C369.265 229.861 369.274 229.87 369.264 229.924L372.083 230.487ZM372.111 246.983V230.205H369.236V246.983H372.111ZM362.772 256.323C367.896 256.323 372.111 252.107 372.111 246.983H369.236C369.236 250.519 366.308 253.447 362.772 253.447V256.323ZM312.114 256.323H362.772V253.447H312.114V256.323ZM302.775 246.983C302.775 252.107 306.99 256.323 312.114 256.323V253.447C308.578 253.447 305.65 250.519 305.65 246.983H302.775ZM302.775 230.205V246.983H305.65V230.205H302.775ZM306.161 226.819C304.284 226.819 302.775 228.329 302.775 230.205H305.65C305.65 229.917 305.872 229.695 306.161 229.695V226.819ZM309.547 230.205C309.547 228.329 308.037 226.819 306.161 226.819V229.695C306.449 229.695 306.671 229.917 306.671 230.205H309.547ZM309.547 247.091V230.205H306.671V247.091H309.547ZM312.222 249.767C310.743 249.767 309.547 248.57 309.547 247.091H306.671C306.671 250.158 309.155 252.642 312.222 252.642V249.767ZM362.88 249.767H312.222V252.642H362.88V249.767ZM365.556 247.091C365.556 248.571 364.359 249.767 362.88 249.767V252.642C365.947 252.642 368.431 250.158 368.431 247.091H365.556ZM365.556 230.314V247.091H368.431V230.314H365.556Z" fill="#1E40AF" mask="url(#path-7-outside-1_20_904)"/>
<path d="M31.531 9.64452C34.1383 9.64452 36.2519 7.48552 36.2519 4.82226C36.2519 2.159 34.1383 -1.63411e-08 31.531 -1.05272e-08C28.9237 -4.71317e-09 26.8101 2.159 26.8101 4.82226C26.8101 7.48552 28.9237 9.64452 31.531 9.64452Z" fill="#FACC15"/>
<path d="M31.531 26.5224C34.1383 26.5224 36.2519 24.3634 36.2519 21.7001C36.2519 19.0369 34.1383 16.8779 31.531 16.8779C28.9237 16.8779 26.8101 19.0369 26.8101 21.7001C26.8101 24.3634 28.9237 26.5224 31.531 26.5224Z" fill="#FACC15"/>
<path d="M31.531 43.4004C34.1383 43.4004 36.2519 41.2414 36.2519 38.5781C36.2519 35.9149 34.1383 33.7559 31.531 33.7559C28.9237 33.7559 26.8101 35.9149 26.8101 38.5781C26.8101 41.2414 28.9237 43.4004 31.531 43.4004Z" fill="#FACC15"/>
<path d="M48.0545 9.64452C50.6618 9.64452 52.7754 7.48552 52.7754 4.82226C52.7754 2.159 50.6618 -1.59863e-08 48.0545 -1.02986e-08C45.4472 -4.61083e-09 43.3336 2.159 43.3336 4.82226C43.3336 7.48552 45.4472 9.64452 48.0545 9.64452Z" fill="#FACC15"/>
<path d="M48.0545 26.5224C50.6618 26.5224 52.7754 24.3634 52.7754 21.7001C52.7754 19.0369 50.6618 16.8779 48.0545 16.8779C45.4472 16.8779 43.3336 19.0369 43.3336 21.7001C43.3336 24.3634 45.4472 26.5224 48.0545 26.5224Z" fill="#FACC15"/>
<path d="M48.0545 43.4004C50.6618 43.4004 52.7754 41.2414 52.7754 38.5781C52.7754 35.9149 50.6618 33.7559 48.0545 33.7559C45.4472 33.7559 43.3336 35.9149 43.3336 38.5781C43.3336 41.2414 45.4472 43.4004 48.0545 43.4004Z" fill="#FACC15"/>
<path d="M64.578 9.64452C67.1852 9.64452 69.2989 7.48552 69.2989 4.82226C69.2989 2.159 67.1852 -1.59863e-08 64.578 -1.02986e-08C61.9707 -4.61083e-09 59.8571 2.159 59.8571 4.82226C59.8571 7.48552 61.9707 9.64452 64.578 9.64452Z" fill="#FACC15"/>
<path d="M64.578 26.5224C67.1852 26.5224 69.2989 24.3634 69.2989 21.7001C69.2989 19.0369 67.1852 16.8779 64.578 16.8779C61.9707 16.8779 59.8571 19.0369 59.8571 21.7001C59.8571 24.3634 61.9707 26.5224 64.578 26.5224Z" fill="#FACC15"/>
<path d="M64.578 43.4004C67.1852 43.4004 69.2989 41.2414 69.2989 38.5781C69.2989 35.9149 67.1852 33.7559 64.578 33.7559C61.9707 33.7559 59.8571 35.9149 59.8571 38.5781C59.8571 41.2414 61.9707 43.4004 64.578 43.4004Z" fill="#FACC15"/>
<path d="M141.935 186.012L83.0511 189.892C79.022 127.483 -2.79881 106.432 1.39822 96.3632C5.59526 86.2939 34.8694 89.2616 72.4957 101.472C110.122 113.683 100.007 77.136 118.411 76.9029C136.815 76.6697 118.607 100.551 127.875 118.389C132.303 126.911 142.67 167.358 141.935 186.012Z" fill="#BFDBFE"/>
<path d="M59.2718 121.879C65.7011 120.448 82.4635 118.581 98.0794 122.556" stroke="#60A5FA" stroke-width="2.3961" stroke-linecap="round"/>
<path fill-rule="evenodd" clip-rule="evenodd" d="M96.0024 101.302C98.1418 99.9288 99.8131 98.1213 101.223 96.1095C101.293 96.4543 101.176 96.8257 100.888 97.064C99.006 98.6181 94.9802 104.383 95.6167 114.241C95.6515 114.78 95.2475 115.245 94.7143 115.28C94.1812 115.315 93.7208 114.907 93.6861 114.369C93.3422 109.042 94.2804 104.765 95.6023 101.591C95.7376 101.496 95.8709 101.4 96.0024 101.302Z" fill="#60A5FA"/>
<path fill-rule="evenodd" clip-rule="evenodd" d="M20.0448 90.3195C22.5754 90.3918 25.3205 90.6016 28.2576 90.9439C31.1135 91.8986 34.1154 92.929 37.0341 93.9722C44.0425 96.4769 50.7007 99.0991 53.6363 100.938C54.0904 101.223 54.2302 101.825 53.9486 102.284C53.667 102.742 53.0707 102.884 52.6166 102.599C49.8947 100.894 43.4547 98.34 36.3888 95.8147C30.6876 93.7771 24.6631 91.7868 20.0448 90.3195ZM1.62149 98.4675C1.21552 97.7145 1.12624 97.0158 1.39824 96.3632C2.13425 94.5974 3.64145 93.2325 5.82964 92.2481C6.99758 91.9797 8.35454 91.8485 9.92191 91.8889C12.1898 91.9474 15.3174 92.632 18.8306 93.6608C22.365 94.6958 26.3651 96.1024 30.4081 97.6496C38.4949 100.744 46.8002 104.419 51.9825 106.862C52.4667 107.09 52.6761 107.671 52.4502 108.16C52.2244 108.649 51.6488 108.861 51.1646 108.633C46.0153 106.206 37.755 102.551 29.7227 99.4773C25.7062 97.9403 21.7586 96.5532 18.2919 95.538C14.804 94.5166 11.8772 93.8944 9.87251 93.8427C5.78779 93.7373 3.69314 94.9037 2.64597 96.1726C2.05317 96.891 1.74439 97.7035 1.62149 98.4675ZM12.4449 106.83C11.8645 106.477 11.3015 106.133 10.757 105.795C11.0545 105.013 11.4595 104.249 11.9981 103.556C13.7446 101.308 16.7316 100.011 21.3385 100.96C25.7879 101.876 31.7757 104.392 37.3946 107.118C43.0357 109.855 48.3907 112.847 51.605 114.771C52.0647 115.046 52.2165 115.645 51.9441 116.11C51.6718 116.574 51.0784 116.727 50.6188 116.452C47.4466 114.554 42.1413 111.589 36.557 108.88C30.9507 106.16 25.1484 103.739 20.952 102.875C16.913 102.043 14.7272 103.209 13.52 104.763C13.0386 105.382 12.6886 106.095 12.4449 106.83Z" fill="#60A5FA"/>
<path d="M58.7317 180.455C59.5119 207.483 70.887 233.092 90.3555 251.648C109.824 270.205 135.792 280.191 162.547 279.41L159.65 177.487L58.7317 180.455Z" fill="#60A5FA"/>
</svg>
