<svg width="508" height="309" viewBox="0 0 508 309" fill="none" xmlns="http://www.w3.org/2000/svg">
<rect width="507.855" height="309" transform="translate(0.072525)" fill="white"/>
<path d="M431.865 286.112C431.878 231.24 410.237 178.62 371.702 139.829C333.166 101.038 280.894 79.2525 226.383 79.2657C171.873 79.2788 119.59 101.089 81.0359 139.899C42.4818 178.709 20.8148 231.339 20.8015 286.211L431.865 286.112Z" fill="#EFF6FF"/>
<path d="M101.298 7.84971C99.5649 7.53572 97.8321 7.22173 96.0994 7.22173L96.0994 2.82589C96.0994 1.25595 94.8392 0.156995 93.4215 4.13918e-07C93.4215 4.13918e-07 93.4215 4.13918e-07 93.264 4.1266e-07C68.218 2.1262e-07 46.9525 17.8973 42.3844 42.3884C41.7543 45.3713 41.5967 48.5112 41.5967 51.6511C41.5967 53.221 42.8569 54.477 44.4321 54.477L48.8428 54.477C50.1029 74.8862 65.0675 92.1556 85.5454 95.7664C88.2233 96.2374 90.9012 96.5514 93.579 96.5514C102.558 96.5514 111.379 93.8825 119.098 88.5447C129.022 81.7939 135.637 71.4323 137.685 59.6578C141.781 35.6377 125.556 12.2455 101.298 7.84971ZM47.7401 43.4874C51.5206 22.4502 69.3206 6.90774 90.5861 5.65179L90.5861 49.1392L51.2056 49.1392L47.11 49.1392C47.11 47.2552 47.4251 45.3713 47.7401 43.4874ZM132.014 58.8728C130.124 69.2344 124.296 78.1831 115.632 84.1489C106.968 90.1146 96.572 92.4696 86.1755 90.5856C68.3755 87.2887 55.3012 72.3743 54.041 54.634L93.264 54.634C94.8392 54.634 96.0994 53.378 96.0994 51.8081L96.0994 12.7165C97.5171 12.8735 98.9348 13.0305 100.352 13.1875C121.618 17.1124 135.795 37.5216 132.014 58.8728Z" fill="#EFF6FF"/>
<line y1="-2.50956" x2="138.173" y2="-2.50956" transform="matrix(1 -0.000241165 -0.000241617 1 288.575 20.6296)" stroke="#EFF6FF" stroke-width="5.01912"/>
<line y1="-2.50956" x2="136.206" y2="-2.50956" transform="matrix(0.000241384 -1 1 -0.000241021 288.542 156.836)" stroke="#EFF6FF" stroke-width="5.01912"/>
<line y1="-2.50956" x2="138.173" y2="-2.50956" transform="matrix(1 -0.000241222 -0.000241674 1 288.567 55.1122)" stroke="#EFF6FF" stroke-width="5.01912"/>
<line y1="-2.50956" x2="136.206" y2="-2.50956" transform="matrix(0.000241601 -1 1 -0.000241238 323.085 156.828)" stroke="#EFF6FF" stroke-width="5.01912"/>
<line y1="-2.50956" x2="138.173" y2="-2.50956" transform="matrix(1 -0.000241133 -0.000241585 1 288.558 89.5949)" stroke="#EFF6FF" stroke-width="5.01912"/>
<line y1="-2.50956" x2="136.206" y2="-2.50956" transform="matrix(0.000241601 -1 1 -0.000241238 357.628 156.819)" stroke="#EFF6FF" stroke-width="5.01912"/>
<line y1="-2.50956" x2="138.173" y2="-2.50956" transform="matrix(1 -0.000241164 -0.000241616 1 288.55 124.078)" stroke="#EFF6FF" stroke-width="5.01912"/>
<line y1="-2.50956" x2="136.206" y2="-2.50956" transform="matrix(0.000241384 -1 1 -0.000241021 392.171 156.811)" stroke="#EFF6FF" stroke-width="5.01912"/>
<line y1="-2.50956" x2="138.173" y2="-2.50956" transform="matrix(1 -0.000241164 -0.000241616 1 288.542 158.56)" stroke="#EFF6FF" stroke-width="5.01912"/>
<line y1="-2.50956" x2="136.206" y2="-2.50956" transform="matrix(0.000241601 -1 1 -0.000241238 426.714 156.803)" stroke="#EFF6FF" stroke-width="5.01912"/>
<rect width="198.619" height="148.703" rx="10.0382" transform="matrix(1 -0.000694764 0.000213529 1 127.951 31.1486)" fill="#BFDBFE"/>
<rect width="229.719" height="171.987" rx="10.0382" transform="matrix(1 -0.000694749 0.000213529 1 112.391 47.1003)" fill="#60A5FA"/>
<rect width="270.688" height="202.66" rx="10.0382" transform="matrix(1 -0.000694735 0.000213543 1 91.8957 64.5367)" fill="#3B82F6"/>
<path d="M129.886 201.121L196.377 176.937L266.336 220.854L333.682 157.876" stroke="#BFDBFE" stroke-width="7.52868"/>
<ellipse rx="6.90875" ry="6.89641" transform="matrix(0.999078 -0.0429335 0.0426025 0.999092 113.976 82.4698)" fill="#EFF6FF"/>
<ellipse rx="6.90875" ry="6.89641" transform="matrix(0.999078 -0.0429335 0.0426025 0.999092 134.69 83.1322)" fill="#EFF6FF"/>
<ellipse rx="6.90874" ry="6.89641" transform="matrix(0.999078 -0.0429334 0.0426026 0.999092 155.405 83.7945)" fill="#EFF6FF"/>
<path d="M333.136 178.29C341.195 178.285 347.735 171.757 347.733 163.702C347.731 155.646 341.189 149.128 333.13 149.133C325.071 149.139 318.532 155.666 318.534 163.722C318.535 171.778 325.077 178.296 333.136 178.29Z" fill="#BFDBFE" stroke="#1E40AF" stroke-width="5.01912"/>
<path d="M265.796 235.48C273.855 235.474 280.394 228.947 280.392 220.891C280.391 212.836 273.848 206.317 265.789 206.323C257.73 206.329 251.191 212.856 251.193 220.912C251.195 228.967 257.737 235.486 265.796 235.48Z" fill="#BFDBFE" stroke="#1E40AF" stroke-width="5.01912"/>
<path d="M197.691 190.618C205.75 190.613 212.289 184.085 212.287 176.03C212.286 167.974 205.744 161.456 197.685 161.462C189.626 161.467 183.086 167.995 183.088 176.05C183.09 184.106 189.632 190.624 197.691 190.618Z" fill="#BFDBFE" stroke="#1E40AF" stroke-width="5.01912"/>
<path d="M130.306 211.543C138.365 211.537 144.904 205.01 144.902 196.954C144.9 188.899 138.358 182.38 130.299 182.386C122.24 182.391 115.701 188.919 115.703 196.974C115.705 205.03 122.247 211.548 130.306 211.543Z" fill="#BFDBFE" stroke="#1E40AF" stroke-width="5.01912"/>
<path d="M277.725 96.8146L216.098 96.8426C212.138 96.8444 208.798 100.042 208.8 104.098L208.815 137.652C208.817 141.585 212.036 144.902 216.12 144.9L217.976 144.899L217.98 154.977C217.981 156.698 218.972 158.05 220.581 158.664C220.952 158.786 221.447 158.909 221.818 158.909C222.932 158.908 224.046 158.416 224.788 157.433L234.806 144.891L277.499 144.872C281.459 144.87 284.799 141.673 284.797 137.617L284.782 103.94C285.028 100.007 281.685 96.8128 277.725 96.8146ZM280.713 137.619C280.714 139.217 279.354 140.569 277.745 140.57L233.938 140.59C233.319 140.59 232.7 140.836 232.205 141.451L222.435 153.746L222.43 142.808C222.429 141.578 221.439 140.596 220.201 140.596L216.118 140.598C214.509 140.599 213.147 139.247 213.146 137.65L213.131 103.973C213.13 102.375 214.491 101.022 216.1 101.022L277.603 100.994C279.212 100.993 280.574 102.344 280.574 103.942L280.59 137.619L280.713 137.619Z" fill="#1E40AF"/>
<path d="M262.51 126.85L259.794 126.852L259.79 109.352C259.79 108.145 258.755 107.18 257.462 107.181C256.168 107.182 255.393 108.269 255.393 109.355L255.397 126.855L249.447 126.859L249.444 112.376C249.444 111.17 248.409 110.205 247.116 110.206C245.822 110.207 244.788 111.173 244.788 112.38L244.791 126.983L238.842 126.987L238.84 117.332C238.84 116.125 237.805 115.16 236.511 115.161C235.218 115.162 234.183 116.128 234.184 117.335L234.186 126.99L232.504 126.992C231.211 126.993 230.177 127.959 230.177 129.166C230.177 130.373 231.212 131.337 232.505 131.336L262.382 131.316C263.675 131.315 264.709 130.349 264.709 129.142C264.838 127.814 263.803 126.849 262.51 126.85Z" fill="#1E40AF"/>
<path d="M4.68525 269.55C7.22835 269.549 9.2908 267.489 9.29186 264.949C9.29293 262.409 7.2322 260.351 4.68911 260.352C2.14601 260.353 0.0835636 262.413 0.0824988 264.953C0.0814339 267.493 2.14216 269.551 4.68525 269.55Z" fill="#FACC15"/>
<path d="M4.68131 285.641C7.22441 285.64 9.28686 283.58 9.28792 281.04C9.28899 278.5 7.22827 276.442 4.68517 276.443C2.14208 276.445 0.0796264 278.504 0.0785609 281.044C0.0774955 283.584 2.13822 285.642 4.68131 285.641Z" fill="#FACC15"/>
<path d="M4.67703 301.733C7.22012 301.732 9.28257 299.672 9.28364 297.132C9.2847 294.592 7.22398 292.534 4.68088 292.535C2.13779 292.537 0.0753391 294.596 0.0742741 297.136C0.0732091 299.676 2.13393 301.734 4.67703 301.733Z" fill="#FACC15"/>
<path d="M20.8052 269.545C23.3483 269.544 25.4107 267.484 25.4118 264.945C25.4128 262.405 23.3521 260.347 20.809 260.348C18.2659 260.349 16.2035 262.409 16.2024 264.948C16.2014 267.488 18.2621 269.546 20.8052 269.545Z" fill="#FACC15"/>
<path d="M20.8011 285.637C23.3442 285.636 25.4067 283.576 25.4077 281.036C25.4088 278.497 23.3481 276.439 20.805 276.44C18.2619 276.441 16.1994 278.5 16.1984 281.04C16.1973 283.58 18.258 285.638 20.8011 285.637Z" fill="#FACC15"/>
<path d="M20.7975 301.729C23.3406 301.728 25.4031 299.668 25.4041 297.128C25.4052 294.589 23.3445 292.531 20.8014 292.532C18.2583 292.533 16.1958 294.592 16.1948 297.132C16.1937 299.672 18.2544 301.73 20.7975 301.729Z" fill="#FACC15"/>
<path d="M36.925 269.541C39.4681 269.54 41.5305 267.481 41.5316 264.941C41.5326 262.401 39.4719 260.343 36.9288 260.344C34.3857 260.345 32.3233 262.405 32.3222 264.945C32.3211 267.484 34.3819 269.542 36.925 269.541Z" fill="#FACC15"/>
<path d="M36.9214 285.633C39.4645 285.632 41.5269 283.572 41.528 281.033C41.529 278.493 39.4683 276.435 36.9252 276.436C34.3821 276.437 32.3197 278.497 32.3186 281.036C32.3175 283.576 34.3783 285.634 36.9214 285.633Z" fill="#FACC15"/>
<path d="M36.9173 301.725C39.4604 301.724 41.5229 299.664 41.5239 297.125C41.525 294.585 39.4643 292.527 36.9212 292.528C34.3781 292.529 32.3156 294.589 32.3146 297.128C32.3135 299.668 34.3742 301.726 36.9173 301.725Z" fill="#FACC15"/>
<path d="M427.745 241.41L423.487 239.976L428.537 224.98C433.881 209.114 425.319 191.858 409.453 186.515L409.452 186.514C393.586 181.172 376.33 189.733 370.987 205.6L370.883 205.908L381.15 209.366L381.254 209.057C382.973 203.954 386.606 200.026 391.086 197.804C392.206 197.248 393.379 196.799 394.588 196.465C397.006 195.797 399.569 195.587 402.143 195.904C403.429 196.063 404.719 196.352 405.994 196.782L405.995 196.782C416.201 200.219 421.707 211.317 418.27 221.523L413.22 236.518L394.711 230.285L376.204 224.053L365.937 220.595L361.678 219.161C358.312 218.027 354.664 219.837 353.53 223.204L352.281 226.912L338.035 269.214L336.786 272.922C335.653 276.289 337.463 279.936 340.829 281.07L373.862 292.195L406.896 303.319C410.262 304.453 413.91 302.643 415.044 299.277L416.293 295.569L430.539 253.266L431.788 249.558C432.921 246.191 431.111 242.543 427.745 241.41ZM386.365 275.257L374.152 271.144L379.846 261.464C378.24 259.475 377.64 256.744 378.516 254.141C379.879 250.093 384.266 247.916 388.315 249.279C392.363 250.643 394.539 255.03 393.176 259.078C392.3 261.68 390.169 263.492 387.688 264.104L386.365 275.257Z" fill="#1E40AF"/>
<path fill-rule="evenodd" clip-rule="evenodd" d="M398.546 106.342C399.975 106.415 401.073 107.631 400.999 109.057L399.53 137.392C399.456 138.819 398.237 139.916 396.809 139.843C395.38 139.77 394.281 138.554 394.355 137.127L395.825 108.792C395.899 107.366 397.117 106.269 398.546 106.342Z" fill="#60A5FA"/>
<path fill-rule="evenodd" clip-rule="evenodd" d="M475.215 145.034C476.246 146.024 476.277 147.661 475.285 148.69L455.576 169.133C454.583 170.162 452.943 170.194 451.913 169.204C450.882 168.214 450.851 166.577 451.843 165.547L471.552 145.104C472.545 144.075 474.185 144.043 475.215 145.034Z" fill="#60A5FA"/>
<path fill-rule="evenodd" clip-rule="evenodd" d="M507.684 224.442C507.811 225.865 506.758 227.121 505.333 227.248L477.015 229.772C475.589 229.899 474.331 228.848 474.205 227.426C474.078 226.003 475.131 224.747 476.556 224.62L504.874 222.096C506.3 221.969 507.558 223.019 507.684 224.442Z" fill="#60A5FA"/>
<path fill-rule="evenodd" clip-rule="evenodd" d="M480.027 305.671C479.188 306.828 477.568 307.089 476.409 306.252L453.384 289.637C452.225 288.8 451.965 287.183 452.804 286.026C453.642 284.868 455.262 284.608 456.421 285.444L479.446 302.06C480.605 302.896 480.865 304.513 480.027 305.671Z" fill="#60A5FA"/>
</svg>
