<svg width="489" height="309" viewBox="0 0 489 309" fill="none" xmlns="http://www.w3.org/2000/svg">
<rect width="488.34" height="309" fill="white"/>
<circle cx="227.803" cy="189.46" r="119.54" fill="#DBEAFE"/>
<path d="M346.593 14.8558C384.186 14.8558 420.24 29.9121 446.823 56.7126C473.405 83.5131 488.34 119.863 488.34 157.764C488.34 195.666 473.405 232.015 446.823 258.816C420.24 285.616 384.187 300.673 346.593 300.673L346.593 14.8558Z" fill="#EFF6FF"/>
<rect x="119.917" y="123.127" width="323.973" height="67.4899" rx="27.3577" fill="#3B82F6"/>
<ellipse cx="140.84" cy="142.699" rx="7.42438" ry="7.42389" fill="#DBEAFE"/>
<ellipse cx="163.788" cy="142.699" rx="7.42438" ry="7.42389" fill="#DBEAFE"/>
<rect x="346.698" y="163.621" width="85.043" height="13.498" rx="6.74899" fill="#1D4ED8"/>
<rect x="119.917" y="198.716" width="323.973" height="67.4899" rx="27.3577" fill="#3B82F6"/>
<ellipse cx="140.84" cy="218.288" rx="7.42438" ry="7.42389" fill="#FACC15"/>
<ellipse cx="163.788" cy="218.288" rx="7.42438" ry="7.42389" fill="#FACC15"/>
<rect x="346.698" y="239.21" width="85.043" height="13.498" rx="6.74899" fill="#1D4ED8"/>
<rect x="119.917" y="47.5384" width="323.973" height="67.4899" rx="27.3577" fill="#3B82F6"/>
<ellipse cx="140.84" cy="67.1104" rx="7.42438" ry="7.42389" fill="#DBEAFE"/>
<ellipse cx="163.788" cy="67.1104" rx="7.42438" ry="7.42389" fill="#DBEAFE"/>
<rect x="346.698" y="88.0323" width="85.043" height="13.498" rx="6.74899" fill="#1D4ED8"/>
<path fill-rule="evenodd" clip-rule="evenodd" d="M19.286 81.05C18.9742 80.6413 19.0529 80.0572 19.4616 79.7454L27.5812 73.5531C27.99 73.2414 28.574 73.3201 28.8858 73.7289C29.1975 74.1377 29.1189 74.7218 28.7101 75.0335L20.5905 81.2258C20.1818 81.5375 19.5977 81.4588 19.286 81.05Z" fill="#60A5FA"/>
<path fill-rule="evenodd" clip-rule="evenodd" d="M12.1028 51.024C12.1353 50.5109 12.5775 50.1214 13.0906 50.1539L23.2792 50.7992C23.7922 50.8317 24.1818 51.2739 24.1493 51.787C24.1168 52.3 23.6746 52.6896 23.1616 52.6571L12.973 52.0118C12.46 51.9793 12.0704 51.5371 12.1028 51.024Z" fill="#60A5FA"/>
<path fill-rule="evenodd" clip-rule="evenodd" d="M26.3614 23.6389C26.7226 23.2731 27.3119 23.2693 27.6777 23.6305L34.9465 30.807C35.3124 31.1682 35.3162 31.7576 34.955 32.1234C34.5939 32.4892 34.0045 32.493 33.6387 32.1318L26.3699 24.9553C26.0041 24.5941 26.0003 24.0048 26.3614 23.6389Z" fill="#60A5FA"/>
<path fill-rule="evenodd" clip-rule="evenodd" d="M55.0822 12.3152C55.5947 12.2757 56.0423 12.6592 56.0818 13.1717L56.8674 23.3517C56.907 23.8643 56.5236 24.3119 56.011 24.3514C55.4985 24.3909 55.0509 24.0075 55.0114 23.4949L54.2258 13.3149C54.1862 12.8023 54.5696 12.3548 55.0822 12.3152Z" fill="#60A5FA"/>
<rect x="42.8961" y="44.7566" width="186.235" height="138.986" rx="9.96312" transform="rotate(-13.6757 42.8961 44.7566)" fill="#EFF6FF"/>
<path fill-rule="evenodd" clip-rule="evenodd" d="M67.9548 147.54L54.0738 90.6043C58.9866 84.4061 65.9141 79.7423 74.1795 77.7311C93.9677 72.9162 113.931 85.1287 118.768 105.009C123.605 124.888 111.485 144.908 91.6967 149.723C83.443 151.731 75.159 150.777 67.9548 147.54Z" fill="#DBEAFE"/>
<path fill-rule="evenodd" clip-rule="evenodd" d="M65.6549 138.11L67.954 147.54C75.1581 150.777 83.442 151.731 91.6956 149.723C102.154 147.178 110.471 140.386 115.274 131.613C108.554 122.446 96.9474 117.697 85.451 120.495C76.0571 122.781 68.9124 129.575 65.6549 138.11Z" fill="#60A5FA"/>
<path d="M83.5029 116.049C77.7579 117.447 71.899 113.641 70.4166 107.549C68.9342 101.457 72.3897 95.3851 78.1347 93.9872C83.8797 92.5893 89.7386 96.3948 91.221 102.487C92.7034 108.579 89.2479 114.651 83.5029 116.049Z" fill="#BFDBFE"/>
<path d="M73.2525 113.624C72.1485 112.288 71.3093 110.715 70.7948 109.015C70.2802 107.316 70.1027 105.531 70.2748 103.789C70.447 102.046 70.9644 100.388 71.7907 98.9318C72.617 97.4757 73.7318 96.2572 75.0561 95.3627C76.3803 94.4682 77.8818 93.9196 79.4538 93.7558C81.0258 93.592 82.6299 93.8169 84.1525 94.4148C85.6751 95.0127 87.0788 95.9687 88.2642 97.2153C89.4497 98.4618 90.3878 99.9683 91.012 101.628L82.9404 98.2896L80.9635 95.7179C80.9635 95.7179 86.2264 106.034 73.2525 113.624Z" fill="#1F2937"/>
<rect x="164.038" y="64.6448" width="45.2019" height="9.39606" rx="4.69803" transform="rotate(-13.6757 164.038 64.6448)" fill="#BFDBFE"/>
<rect x="133.948" y="71.7974" width="21.4114" height="9.39606" rx="4.69803" transform="rotate(-13.6757 133.948 71.7974)" fill="#FACC15"/>
<rect x="175.994" y="88.6245" width="36.8752" height="9.56024" rx="4.78012" transform="rotate(166.324 175.994 88.6245)" fill="#BFDBFE"/>
<rect x="193.228" y="104.109" width="49.96" height="9.56024" rx="4.78012" transform="rotate(166.324 193.228 104.109)" fill="#BFDBFE"/>
<rect x="214.135" y="79.3438" width="29.7381" height="9.56024" rx="4.78012" transform="rotate(166.324 214.135 79.3438)" fill="#BFDBFE"/>
<rect x="218.655" y="97.922" width="16.6533" height="9.56024" rx="4.78012" transform="rotate(166.324 218.655 97.922)" fill="#FACC15"/>
<ellipse cx="61.5959" cy="56.1952" rx="4.75995" ry="4.78012" transform="rotate(-13.6757 61.5959 56.1952)" fill="#BFDBFE"/>
<ellipse cx="75.4636" cy="52.8209" rx="4.75995" ry="4.78012" transform="rotate(-13.6757 75.4636 52.8209)" fill="#BFDBFE"/>
<ellipse cx="89.3319" cy="49.4463" rx="4.75995" ry="4.78012" transform="rotate(-13.6757 89.3319 49.4463)" fill="#BFDBFE"/>
<path d="M447.417 274.673C449.427 274.672 451.056 273.046 451.057 271.041C451.058 269.036 449.43 267.411 447.42 267.411C445.411 267.412 443.781 269.039 443.781 271.044C443.78 273.049 445.408 274.674 447.417 274.673Z" fill="#FACC15"/>
<path d="M447.414 287.379C449.423 287.378 451.053 285.751 451.054 283.746C451.054 281.741 449.426 280.116 447.417 280.117C445.408 280.117 443.778 281.744 443.777 283.749C443.776 285.754 445.404 287.379 447.414 287.379Z" fill="#FACC15"/>
<path d="M447.411 300.084C449.42 300.083 451.05 298.457 451.051 296.452C451.052 294.446 449.423 292.821 447.414 292.822C445.405 292.823 443.775 294.449 443.774 296.455C443.773 298.46 445.402 300.085 447.411 300.084Z" fill="#FACC15"/>
<path d="M460.154 274.67C462.163 274.669 463.793 273.043 463.793 271.038C463.794 269.032 462.166 267.407 460.157 267.408C458.147 267.409 456.518 269.035 456.517 271.041C456.516 273.046 458.144 274.671 460.154 274.67Z" fill="#FACC15"/>
<path d="M460.151 287.375C462.16 287.375 463.79 285.748 463.791 283.743C463.791 281.738 462.163 280.113 460.154 280.113C458.145 280.114 456.515 281.741 456.514 283.746C456.513 285.751 458.142 287.376 460.151 287.375Z" fill="#FACC15"/>
<path d="M460.148 300.081C462.157 300.08 463.786 298.454 463.787 296.448C463.788 294.443 462.16 292.818 460.151 292.819C458.141 292.82 456.512 294.446 456.511 296.452C456.51 298.457 458.138 300.082 460.148 300.081Z" fill="#FACC15"/>
<path d="M472.89 274.667C474.899 274.666 476.529 273.04 476.53 271.035C476.531 269.029 474.903 267.405 472.893 267.405C470.884 267.406 469.254 269.033 469.253 271.038C469.253 273.043 470.881 274.668 472.89 274.667Z" fill="#FACC15"/>
<path d="M472.887 287.373C474.896 287.372 476.526 285.745 476.527 283.74C476.528 281.735 474.899 280.11 472.89 280.111C470.881 280.112 469.251 281.738 469.25 283.743C469.25 285.748 470.878 287.373 472.887 287.373Z" fill="#FACC15"/>
<path d="M472.884 300.078C474.894 300.077 476.523 298.451 476.524 296.446C476.525 294.44 474.897 292.815 472.887 292.816C470.878 292.817 469.248 294.443 469.248 296.449C469.247 298.454 470.875 300.079 472.884 300.078Z" fill="#FACC15"/>
</svg>
